<svg xmlns="http://www.w3.org/2000/svg" width="48" height="48" fill="none"><path fill="#2591B5" d="M25.476 4.652a1.997 1.997 0 0 0-2.952 0L20.52 6.851a2 2 0 0 1-2.082.558l-2.835-.903a1.997 1.997 0 0 0-2.556 1.476l-.636 2.906a2 2 0 0 1-1.524 1.524l-2.906.636a1.997 1.997 0 0 0-1.476 2.556l.903 2.835a2 2 0 0 1-.558 2.082l-2.199 2.003c-.87.792-.87 2.16 0 2.952l2.199 2.003c.576.526.794 1.339.558 2.082l-.903 2.835a1.997 1.997 0 0 0 1.476 2.556l2.906.636a2 2 0 0 1 1.524 1.524l.636 2.906a1.997 1.997 0 0 0 2.556 1.476l2.835-.903a2 2 0 0 1 2.082.558l2.003 2.199c.792.87 2.16.87 2.952 0l2.003-2.199a2 2 0 0 1 2.082-.558l2.835.903a1.997 1.997 0 0 0 2.556-1.476l.636-2.906a2 2 0 0 1 1.524-1.524l2.906-.636a1.997 1.997 0 0 0 1.476-2.556l-.903-2.835a2 2 0 0 1 .558-2.082l2.199-2.003c.87-.792.87-2.16 0-2.952l-2.199-2.003a2 2 0 0 1-.558-2.082l.903-2.835a1.997 1.997 0 0 0-1.476-2.556l-2.906-.636a2 2 0 0 1-1.524-1.524l-.636-2.906a1.997 1.997 0 0 0-2.556-1.476l-2.835.903a2 2 0 0 1-2.082-.558z"/><path fill="#fff" fill-rule="evenodd" d="M15.298 21.563a4.43 4.43 0 1 1 6.265-6.265 4.43 4.43 0 0 1-6.265 6.265m2.088-4.177a1.477 1.477 0 1 0 2.09 2.089 1.477 1.477 0 0 0-2.09-2.089m9.05 15.316a4.43 4.43 0 1 1 6.266-6.265 4.43 4.43 0 0 1-6.265 6.265m2.09-4.177a1.477 1.477 0 1 0 2.088 2.089 1.477 1.477 0 0 0-2.089-2.089m-12.982 3.727a1.477 1.477 0 0 1 0-2.088l14.62-14.62a1.477 1.477 0 0 1 2.088 2.088l-14.62 14.62a1.477 1.477 0 0 1-2.088 0" clip-rule="evenodd"/></svg>