<svg xmlns="http://www.w3.org/2000/svg" width="48" height="48" fill="none"><mask id="a" width="36" height="34" x="6" y="7" maskUnits="userSpaceOnUse" style="mask-type:alpha"><path fill="#FFCE00" fill-rule="evenodd" d="M24.427 35.862a.93.93 0 0 0-.854 0l-9.718 5.031c-.706.366-1.511-.263-1.37-1.072l1.829-10.505a1.02 1.02 0 0 0-.294-.912l-7.71-7.402c-.596-.572-.284-1.608.52-1.723l10.75-1.538a.96.96 0 0 0 .72-.528l4.85-9.676a.942.942 0 0 1 1.7 0l4.85 9.676a.96.96 0 0 0 .72.527l10.75 1.54c.803.114 1.116 1.15.52 1.722l-7.71 7.403a1.02 1.02 0 0 0-.294.911l1.83 10.506c.14.808-.665 1.437-1.371 1.071z" clip-rule="evenodd"/></mask><g mask="url(#a)"><path fill="#FFCB2E" d="M0 0h48v48H0z"/></g></svg>